<svg width="152" height="32" viewBox="0 0 152 32" fill="none" xmlns="http://www.w3.org/2000/svg">
<path d="M41.584 8.12H47.416C49.32 8.12 50.992 8.504 52.432 9.272C53.872 10.024 54.984 11.08 55.768 12.44C56.552 13.784 56.944 15.32 56.944 17.048C56.944 18.776 56.552 20.32 55.768 21.68C54.984 23.024 53.864 24.08 52.408 24.848C50.968 25.616 49.304 26 47.416 26H41.584V8.12ZM47.512 22.76C48.664 22.76 49.672 22.528 50.536 22.064C51.4 21.6 52.064 20.936 52.528 20.072C52.992 19.208 53.224 18.2 53.224 17.048C53.224 15.896 52.992 14.896 52.528 14.048C52.064 13.184 51.4 12.52 50.536 12.056C49.672 11.592 48.664 11.36 47.512 11.36H45.304V22.76H47.512ZM64.8942 26.288C63.5502 26.288 62.3582 25.984 61.3182 25.376C60.2782 24.768 59.4702 23.944 58.8942 22.904C58.3342 21.848 58.0542 20.688 58.0542 19.424C58.0542 18.144 58.3422 16.984 58.9182 15.944C59.4942 14.904 60.2862 14.088 61.2942 13.496C62.3022 12.904 63.4222 12.608 64.6542 12.608C65.9982 12.608 67.1582 12.888 68.1342 13.448C69.1102 14.008 69.8542 14.784 70.3662 15.776C70.8782 16.752 71.1342 17.848 71.1342 19.064C71.1342 19.656 71.0782 20.12 70.9662 20.456H61.7982C61.9102 21.288 62.2382 21.952 62.7822 22.448C63.3422 22.928 64.0622 23.168 64.9422 23.168C65.5662 23.168 66.1102 23.04 66.5742 22.784C67.0382 22.528 67.3982 22.176 67.6542 21.728L70.5342 23.096C70.1342 24.056 69.4222 24.832 68.3982 25.424C67.3902 26 66.2222 26.288 64.8942 26.288ZM67.3182 17.816C67.2382 17.112 66.9582 16.552 66.4782 16.136C65.9982 15.704 65.3902 15.488 64.6542 15.488C63.9342 15.488 63.3262 15.688 62.8302 16.088C62.3502 16.488 62.0302 17.064 61.8702 17.816H67.3182ZM72.7741 12.896H76.1341V14.48C76.4701 13.856 76.9501 13.392 77.5741 13.088C78.2141 12.768 78.9581 12.608 79.8061 12.608C80.7821 12.608 81.6461 12.816 82.3981 13.232C83.1501 13.648 83.7341 14.232 84.1501 14.984C84.5661 15.736 84.7741 16.6 84.7741 17.576V26H81.1741V18.344C81.1741 17.592 80.9501 16.992 80.5021 16.544C80.0701 16.08 79.4941 15.848 78.7741 15.848C78.0541 15.848 77.4701 16.08 77.0221 16.544C76.5901 16.992 76.3741 17.592 76.3741 18.344V26H72.7741V12.896ZM92.9733 26.144C91.3893 26.144 90.1573 25.72 89.2773 24.872C88.4133 24.008 87.9813 22.808 87.9813 21.272V16.016H85.7733V12.896H85.8933C86.5653 12.896 87.0773 12.728 87.4293 12.392C87.7973 12.056 87.9813 11.552 87.9813 10.88V9.92H91.5813V12.896H94.6533V16.016H91.5813V21.032C91.5813 21.704 91.7653 22.208 92.1333 22.544C92.5013 22.864 93.0613 23.024 93.8133 23.024C94.0373 23.024 94.3173 23 94.6533 22.952V26.024C94.1253 26.104 93.5653 26.144 92.9733 26.144ZM100.339 26.288C98.9148 26.288 97.7948 25.952 96.9788 25.28C96.1628 24.608 95.7548 23.68 95.7548 22.496C95.7548 21.376 96.1388 20.464 96.9068 19.76C97.6908 19.04 98.8588 18.552 100.411 18.296L104.035 17.72V17.36C104.035 16.864 103.835 16.448 103.435 16.112C103.035 15.776 102.507 15.608 101.851 15.608C101.211 15.608 100.643 15.784 100.147 16.136C99.6668 16.472 99.3148 16.936 99.0908 17.528L96.2108 16.16C96.5948 15.072 97.3068 14.208 98.3468 13.568C99.4028 12.928 100.627 12.608 102.019 12.608C103.107 12.608 104.075 12.808 104.923 13.208C105.787 13.608 106.451 14.168 106.915 14.888C107.395 15.608 107.635 16.432 107.635 17.36V26H104.275V24.776C103.763 25.288 103.187 25.672 102.547 25.928C101.907 26.168 101.171 26.288 100.339 26.288ZM99.4748 22.376C99.4748 22.776 99.6188 23.088 99.9068 23.312C100.211 23.536 100.595 23.648 101.059 23.648C101.939 23.648 102.651 23.376 103.195 22.832C103.755 22.272 104.035 21.584 104.035 20.768V20.36L101.059 20.888C100.531 20.984 100.131 21.152 99.8588 21.392C99.6028 21.632 99.4748 21.96 99.4748 22.376ZM109.795 7.832H113.395V26H109.795V7.832ZM115.549 12.896H119.149V26H115.549V12.896ZM115.333 9.2C115.333 8.544 115.509 8.048 115.861 7.712C116.213 7.36 116.709 7.184 117.349 7.184C118.005 7.184 118.501 7.36 118.837 7.712C119.189 8.048 119.365 8.544 119.365 9.2C119.365 9.856 119.189 10.36 118.837 10.712C118.501 11.048 118.005 11.216 117.349 11.216C116.709 11.216 116.213 11.04 115.861 10.688C115.509 10.336 115.333 9.84 115.333 9.2ZM126.392 26.264C125.016 26.264 123.808 25.952 122.768 25.328C121.744 24.688 121.032 23.816 120.632 22.712L123.224 21.368C123.576 22.04 124.032 22.568 124.592 22.952C125.152 23.32 125.776 23.504 126.464 23.504C126.992 23.504 127.4 23.4 127.688 23.192C127.976 22.984 128.12 22.696 128.12 22.328C128.12 22.04 128.008 21.792 127.784 21.584C127.56 21.376 127.224 21.232 126.776 21.152L124.544 20.72C123.456 20.464 122.6 19.984 121.976 19.28C121.368 18.56 121.064 17.712 121.064 16.736C121.064 15.92 121.272 15.2 121.688 14.576C122.12 13.952 122.72 13.472 123.488 13.136C124.272 12.784 125.168 12.608 126.176 12.608C127.392 12.608 128.464 12.896 129.392 13.472C130.32 14.032 131 14.824 131.432 15.848L128.816 17.192C128.608 16.68 128.256 16.272 127.76 15.968C127.264 15.648 126.712 15.488 126.104 15.488C125.608 15.488 125.224 15.584 124.952 15.776C124.68 15.968 124.544 16.232 124.544 16.568C124.544 16.84 124.656 17.08 124.88 17.288C125.12 17.48 125.496 17.64 126.008 17.768L128.096 18.2C129.216 18.504 130.08 19 130.688 19.688C131.296 20.36 131.6 21.176 131.6 22.136C131.6 22.952 131.384 23.672 130.952 24.296C130.52 24.92 129.912 25.408 129.128 25.76C128.344 26.096 127.432 26.264 126.392 26.264ZM139.487 26.144C137.903 26.144 136.671 25.72 135.791 24.872C134.927 24.008 134.495 22.808 134.495 21.272V16.016H132.287V12.896H132.407C133.079 12.896 133.591 12.728 133.943 12.392C134.311 12.056 134.495 11.552 134.495 10.88V9.92H138.095V12.896H141.167V16.016H138.095V21.032C138.095 21.704 138.279 22.208 138.647 22.544C139.015 22.864 139.575 23.024 140.327 23.024C140.551 23.024 140.831 23 141.167 22.952V26.024C140.639 26.104 140.079 26.144 139.487 26.144Z" fill="#181945"/>
<path d="M146.397 26C145.837 26 145.365 25.808 144.981 25.424C144.597 25.04 144.405 24.568 144.405 24.008C144.405 23.448 144.597 22.984 144.981 22.616C145.365 22.232 145.837 22.04 146.397 22.04C146.957 22.04 147.421 22.232 147.789 22.616C148.173 22.984 148.365 23.448 148.365 24.008C148.365 24.584 148.181 25.064 147.813 25.448C147.445 25.816 146.973 26 146.397 26Z" fill="#583FBC"/>
<g clip-path="url(#clip0_1_148)">
<path d="M23.9905 15.3243L22.8479 10.7119C22.7637 10.3749 22.5019 10.1113 22.1649 10.028L19.8046 9.4375L22.1649 8.847C22.4981 8.76369 22.7599 8.50456 22.846 8.17131L23.1646 6.9335C23.1847 6.8575 23.1939 6.75956 23.1939 6.68081C23.1939 6.5105 23.1482 6.343 23.0584 6.1965C21.7859 4.08531 19.8743 2.875 17.8125 2.875C16.0565 2.875 15.1739 3.4875 14.4653 3.98006C13.8464 4.41031 13.3557 4.75 12.1875 4.75C11.0193 4.75 10.5286 4.41031 9.90969 3.98006C9.20106 3.4875 8.3185 2.875 6.5625 2.875C2.94431 2.875 0 6.65981 0 11.3125C0 20.8376 5.52431 30.1531 5.75869 30.545C5.92712 30.8269 6.23294 31 6.5625 31C9.20656 31 9.80894 27.9833 10.2942 25.559C10.7556 23.2556 11.1602 21.625 12.1875 21.625C13.2148 21.625 13.6194 23.2556 14.0808 25.559C14.5661 27.9833 15.1684 31 17.8125 31C18.1421 31 18.4461 30.8269 18.6163 30.545C18.7847 30.263 22.7746 23.5476 24.0069 15.6951C24.0252 15.5716 24.0197 15.4452 23.9905 15.3243Z" fill="url(#paint0_linear_1_148)"/>
<path d="M31.2896 8.52837L25.7099 7.16512L24.3476 1.71044C24.2432 1.293 23.8678 1 23.4375 1C23.0072 1 22.6318 1.293 22.5274 1.71137L21.1688 7.16331L15.7104 8.52837C15.293 8.63181 15 9.00719 15 9.4375C15 9.86781 15.293 10.2432 15.7104 10.3466L21.1633 11.7099L22.5292 17.171C22.6355 17.5857 23.0091 17.875 23.4375 17.875H23.4412C23.8696 17.8732 24.2432 17.5811 24.3476 17.1646L25.7099 11.7099L31.2896 10.3466C31.7071 10.2432 32 9.86781 32 9.4375C32 9.00719 31.7071 8.63181 31.2896 8.52837Z" fill="#7B55EC"/>
</g>
<defs>
<linearGradient id="paint0_linear_1_148" x1="12.0087" y1="31" x2="12.0087" y2="2.875" gradientUnits="userSpaceOnUse">
<stop stop-color="#ADDCFF"/>
<stop offset="0.5028" stop-color="#EAF6FF"/>
<stop offset="1" stop-color="#EAF6FF"/>
</linearGradient>
<clipPath id="clip0_1_148">
<rect width="32" height="32" fill="white"/>
</clipPath>
</defs>
</svg>
